<svg xmlns="http://www.w3.org/2000/svg" xmlns:xlink="http://www.w3.org/1999/xlink" version="1.1" x="0px" y="0px" viewBox="3.5 18.3 493.4 478.5" enable-background="new 3.5 18.3 493.4 478.5" xml:space="preserve" style="fill: rgb(0, 0, 0);" role="img" aria-label="Orb 2">
<g id="__id120_sgpck12bbs">
	<path d="M424.8,424.4c46.4-46.5,72.1-108.4,72.1-174.3H490c0,64-24.9,124.2-70.1,169.4   c-45.2,45.2-105.7,70.4-169.7,70.4c-64,0-124.3-24.9-169.5-70.2c-45.3-45.3-70.3-105.5-70.3-169.6c0-64,24.9-124.3,70.2-169.5   l-4.9-4.9C29.2,122.3,3.5,184.2,3.5,250.1S29.2,378,75.8,424.6c46.6,46.6,108.5,72.2,174.4,72.2c65.8,0,127.9-25.9,174.5-72.3l0,0   C424.7,424.5,424.7,424.5,424.8,424.4C424.8,424.4,424.8,424.4,424.8,424.4L424.8,424.4z" style="fill: rgb(255, 255, 255);"></path>
	<path d="M86.3,414.1L86.3,414.1C86.3,414.1,86.3,414.1,86.3,414.1c0.1,0.1,0.1,0.1,0.1,0.1l0,0   c43.8,43.7,101.9,67.8,163.8,67.8c61.9,0,120.1-24.1,163.9-67.9s67.9-102,67.9-163.9h-12c0,58.6-22.9,113.8-64.4,155.4   c-41.5,41.5-96.7,64.4-155.4,64.4c-58.7-0.1-113.9-22.9-155.3-64.4c-41.5-41.5-64.5-96.9-64.5-155.5c0-58.7,22.9-113.9,64.4-155.4   s96.7-64.4,155.4-64.4c58.7,0,113.9,23,155.4,64.4c41.5,41.5,64.4,96.7,64.4,155.4h12c0-61.8-24-120-67.8-163.8l0,0   c0,0,0,0-0.1-0.1c0,0,0,0-0.1-0.1l0,0C370.4,42.5,312,18.3,250.2,18.3c-61.9,0-120.1,24.1-163.9,67.9   c-43.8,43.8-67.9,102-67.9,163.9C18.4,311.9,42.6,370.3,86.3,414.1z" style="fill: rgb(255, 255, 255);"></path>
	<path d="M66.6,155.1c0.7,0,1.3-0.4,1.6-1c0.6-1.1,1.1-2.1,1.7-3.2c0.5-0.9,0.2-2-0.7-2.5c-0.9-0.5-2-0.2-2.5,0.7   c-0.6,1.1-1.2,2.2-1.8,3.3c-0.5,0.9-0.1,2,0.8,2.5C66,155,66.3,155.1,66.6,155.1z" style="fill: rgb(255, 255, 255);"></path>
	<path d="M58.7,171.7c0.7,0,1.4-0.4,1.7-1.1c0.5-1.1,1-2.2,1.4-3.4c0.4-0.9,0-2-0.9-2.4c-0.9-0.4-2,0-2.4,0.9   c-0.5,1.1-1,2.3-1.5,3.4c-0.4,1,0,2.1,1,2.5C58.2,171.7,58.5,171.7,58.7,171.7z" style="fill: rgb(255, 255, 255);"></path>
	<path d="M75.8,139.2c0.6,0,1.2-0.3,1.5-0.8c0.7-1,1.3-2,2-3c0.6-0.8,0.3-2-0.5-2.6c-0.8-0.6-2-0.3-2.6,0.5   c-0.7,1-1.4,2.1-2,3.1c-0.5,0.8-0.2,2,0.6,2.5C75.1,139.1,75.5,139.2,75.8,139.2z" style="fill: rgb(255, 255, 255);"></path>
	<path d="M43,219c-0.2,1.2-0.4,2.4-0.5,3.7c-0.1,1,0.6,1.9,1.6,2.1c0.1,0,0.2,0,0.2,0c0.9,0,1.7-0.7,1.8-1.6   c0.2-1.2,0.3-2.4,0.5-3.6c0.2-1-0.5-2-1.5-2.1C44.1,217.4,43.2,218,43,219z" style="fill: rgb(255, 255, 255);"></path>
	<path d="M41.2,237.4c-0.1,1.2-0.1,2.5-0.2,3.7c0,1,0.7,1.9,1.8,1.9h0.1c1,0,1.8-0.8,1.8-1.8   c0.1-1.2,0.1-2.4,0.2-3.6c-0.1-1-0.8-1.8-1.8-1.9C42.1,235.6,41.2,236.4,41.2,237.4z" style="fill: rgb(255, 255, 255);"></path>
	<path d="M316.9,55.4c1.2,0.4,2.3,0.8,3.4,1.2c0.2,0.1,0.4,0.1,0.6,0.1c0.8,0,1.5-0.5,1.7-1.2c0.3-1-0.1-2-1.1-2.4   c-1.2-0.4-2.3-0.8-3.5-1.2c-1-0.3-2,0.2-2.3,1.1C315.4,54.1,315.9,55.1,316.9,55.4z" style="fill: rgb(255, 255, 255);"></path>
	<path d="M88,123.6c0.7-1,1.5-1.9,2.3-2.9c0.6-0.8,0.5-1.9-0.3-2.6c-0.8-0.6-1.9-0.5-2.6,0.3c-0.8,1-1.5,1.9-2.3,2.9   c-0.7,0.8-0.5,1.9,0.3,2.6c0.3,0.3,0.7,0.4,1.1,0.4C87,124.3,87.6,124.1,88,123.6z" style="fill: rgb(255, 255, 255);"></path>
	<path d="M99.7,109.7c0.8-0.9,1.7-1.8,2.5-2.6c0.7-0.7,0.7-1.9,0-2.6s-1.9-0.7-2.6,0c-0.9,0.9-1.7,1.8-2.6,2.7   c-0.7,0.7-0.7,1.9,0.1,2.6c0.4,0.3,0.9,0.5,1.3,0.5C98.9,110.3,99.4,110.1,99.7,109.7z" style="fill: rgb(255, 255, 255);"></path>
	<path d="M50.7,314.2c0.2,0.8,1,1.3,1.8,1.3c0.2,0,0.4,0,0.6-0.1c1-0.3,1.5-1.3,1.2-2.3c-0.5-1.2-0.8-2.3-1.2-3.5   c-0.3-1-1.3-1.5-2.3-1.2s-1.5,1.3-1.2,2.3C50,311.9,50.3,313.1,50.7,314.2z" style="fill: rgb(255, 255, 255);"></path>
	<path d="M47.2,206.7c0.1,0,0.3,0,0.4,0c0.8,0,1.6-0.6,1.8-1.4c0.3-1.2,0.5-2.4,0.8-3.5c0.2-1.1-0.4-2.1-1.4-2.3   s-2,0.4-2.2,1.4c-0.3,1.2-0.6,2.4-0.8,3.6C45.6,205.5,46.2,206.5,47.2,206.7z" style="fill: rgb(255, 255, 255);"></path>
	<path d="M42.7,278.1c0.1,0.9,0.9,1.6,1.8,1.6c0.1,0,0.2,0,0.2,0c1-0.1,1.7-1.1,1.5-2.1c-0.2-1.2-0.3-2.4-0.4-3.6   c-0.1-1-1-1.7-2-1.6c-1,0.1-1.7,1-1.6,2C42.3,275.6,42.5,276.9,42.7,278.1z" style="fill: rgb(255, 255, 255);"></path>
	<path d="M302.9,51.2c0.2,0,0.3,0.1,0.5,0.1c0.8,0,1.6-0.5,1.8-1.4c0.3-1-0.3-2-1.3-2.2c-1.2-0.3-2.4-0.6-3.6-0.9   c-1-0.2-2,0.4-2.2,1.3c-0.3,1,0.3,2,1.3,2.2C300.6,50.6,301.8,50.9,302.9,51.2z" style="fill: rgb(255, 255, 255);"></path>
	<path d="M45.9,296.4c0.2,0.9,1,1.4,1.8,1.4c0.1,0,0.3,0,0.4,0c1-0.2,1.6-1.2,1.4-2.2c-0.3-1.3-0.6-2.4-0.8-3.6   c-0.2-1-1.2-1.6-2.2-1.4s-1.6,1.2-1.4,2.2C45.4,294,45.6,295.2,45.9,296.4z" style="fill: rgb(255, 255, 255);"></path>
	<path d="M51.7,188.9c0.2,0.1,0.4,0.1,0.6,0.1c0.8,0,1.5-0.5,1.8-1.3c0.4-1.2,0.7-2.3,1.1-3.5c0.3-1-0.2-2-1.2-2.3   c-1-0.3-2,0.2-2.3,1.2c-0.4,1.2-0.8,2.4-1.2,3.5C50.2,187.6,50.7,188.6,51.7,188.9z" style="fill: rgb(255, 255, 255);"></path>
	<path d="M337.1,63.6c0.3,0.1,0.5,0.2,0.8,0.2c0.7,0,1.4-0.4,1.7-1.1c0.4-0.9,0-2-0.9-2.4c-1.1-0.5-2.2-1-3.4-1.5   c-0.9-0.4-2,0-2.4,0.9c-0.4,0.9,0,2,0.9,2.4C334.9,62.6,336,63.1,337.1,63.6z" style="fill: rgb(255, 255, 255);"></path>
	<path d="M41,259.7c0,0.9,0.8,1.7,1.9,1.7c1,0,1.8-0.9,1.8-1.9c-0.1-1.2-0.1-2.4-0.1-3.6c0-1-0.9-1.8-1.9-1.8   s-1.8,0.9-1.8,1.9C40.9,257.2,41,258.5,41,259.7z" style="fill: rgb(255, 255, 255);"></path>
	<path d="M395.8,104.8c0.2,0.2,0.5,0.5,0.6,0.6c0.4,0.4,0.8,0.5,1.3,0.5s0.9-0.2,1.3-0.5c0.7-0.7,0.7-1.9,0-2.6   c-0.2-0.2-0.5-0.5-0.7-0.7l0,0c-0.7-0.6-1.3-1.3-1.9-1.9c-0.7-0.7-1.9-0.7-2.6,0c-0.7,0.7-0.7,1.9,0,2.6   C394.4,103.4,395.1,104.2,395.8,104.8z" style="fill: rgb(255, 255, 255);"></path>
	<path d="M285.2,47.4c0.1,0,0.2,0,0.3,0c0.9,0,1.7-0.6,1.8-1.5c0.2-1-0.5-2-1.5-2.1c-1.2-0.2-2.4-0.4-3.7-0.6   c-1-0.2-1.9,0.5-2.1,1.5s0.6,1.9,1.6,2.1C282.8,47,284,47.2,285.2,47.4z" style="fill: rgb(255, 255, 255);"></path>
	<path d="M112.8,96.9c0.9-0.8,1.8-1.6,2.7-2.4c0.8-0.7,0.9-1.8,0.2-2.6c-0.7-0.8-1.8-0.9-2.6-0.2   c-0.9,0.8-1.9,1.6-2.8,2.5c-0.7,0.7-0.8,1.9-0.1,2.6c0.4,0.4,0.9,0.6,1.4,0.6C112,97.4,112.5,97.2,112.8,96.9z" style="fill: rgb(255, 255, 255);"></path>
	<path d="M56.8,325.8c-0.9,0.4-1.4,1.5-1,2.4c0.5,1.1,0.9,2.3,1.4,3.4c0.3,0.7,1,1.1,1.7,1.1c0.2,0,0.5,0,0.7-0.1   c0.9-0.4,1.4-1.5,1-2.4c-0.5-1.2-1-2.3-1.4-3.4C58.8,325.9,57.8,325.4,56.8,325.8z" style="fill: rgb(255, 255, 255);"></path>
	<path d="M459.6,249.7c0-1-0.8-1.8-1.8-1.8s-1.8,0.8-1.8,1.8v0.4h3.7L459.6,249.7z" style="fill: rgb(255, 255, 255);"></path>
	<path d="M126.8,85.4c1-0.7,1.9-1.4,2.9-2.2c0.8-0.6,1-1.7,0.4-2.6c-0.6-0.9-1.7-1-2.6-0.4c-1,0.7-2,1.5-3,2.2   c-0.8,0.6-1,1.8-0.4,2.6c0.5,0.5,1.1,0.8,1.6,0.8C126.1,85.8,126.5,85.7,126.8,85.4z" style="fill: rgb(255, 255, 255);"></path>
	<path d="M459.5,253.9c0-1.2,0-2.5,0-3.7h-3.7c0.1,1.2,0.1,2.4,0.1,3.6c0,1,0.8,1.9,1.8,1.9S459.5,254.9,459.5,253.9   z" style="fill: rgb(255, 255, 255);"></path>
	<path d="M267.4,41.4c-1.2-0.1-2.5-0.2-3.7-0.3c-1-0.1-1.9,0.7-2,1.7c0,1.1,0.8,2,1.8,2c1.2,0.1,2.4,0.2,3.6,0.3   c0.1,0,0.1,0,0.2,0c0.9,0,1.8-0.7,1.8-1.7C269.2,42.4,268.4,41.5,267.4,41.4z" style="fill: rgb(255, 255, 255);"></path>
	<path d="M140.9,75.4c0.3,0,0.7-0.1,1-0.3c1-0.6,2.1-1.3,3.1-1.9c0.9-0.5,1.2-1.7,0.6-2.5c-0.5-0.9-1.6-1.2-2.5-0.6   c-1.1,0.6-2.1,1.3-3.2,1.9c-0.9,0.5-1.1,1.7-0.6,2.5C139.7,75.1,140.3,75.4,140.9,75.4z" style="fill: rgb(255, 255, 255);"></path>
	<path d="M317.3,444.7c-1.1,0.4-2.3,0.8-3.5,1.2c-1,0.3-1.5,1.4-1.2,2.3c0.3,0.8,1,1.3,1.7,1.3c0.2,0,0.4,0,0.6-0.1   c1.2-0.4,2.3-0.8,3.5-1.2c1-0.3,1.5-1.4,1.1-2.3C319.3,444.9,318.3,444.4,317.3,444.7z" style="fill: rgb(255, 255, 255);"></path>
	<path d="M440.9,163.5c-0.5-1.1-1-2.2-1.6-3.3c-0.4-0.9-1.5-1.3-2.5-0.9c-0.9,0.4-1.3,1.5-0.9,2.5   c0.6,1,1.1,2.1,1.6,3.2c0.3,0.7,1,1.1,1.7,1.1c0.3,0,0.5-0.1,0.8-0.2C440.9,165.5,441.3,164.4,440.9,163.5z" style="fill: rgb(255, 255, 255);"></path>
	<path d="M299.9,449.9c-1.2,0.3-2.4,0.6-3.5,0.8c-1,0.2-1.6,1.2-1.4,2.2c0.2,0.9,1,1.4,1.8,1.4c0.1,0,0.3,0,0.4,0   c1.2-0.3,2.4-0.6,3.6-0.9c1-0.2,1.6-1.2,1.3-2.2C301.9,450.2,300.9,449.6,299.9,449.9z" style="fill: rgb(255, 255, 255);"></path>
	<path d="M282,453.5c-1.2,0.2-2.4,0.4-3.6,0.5c-1,0.1-1.7,1.1-1.6,2.1c0.1,0.9,0.9,1.6,1.8,1.6c0.1,0,0.2,0,0.3,0   c1.2-0.2,2.4-0.3,3.7-0.5c1-0.2,1.7-1.1,1.5-2.1C284,454,283,453.3,282,453.5z" style="fill: rgb(255, 255, 255);"></path>
	<path d="M452.3,194.8c-0.3-1-1.3-1.6-2.3-1.3c-1,0.3-1.6,1.3-1.3,2.3c0.3,1.1,0.6,2.3,0.9,3.5   c0.2,0.8,1,1.4,1.8,1.4c0.2,0,0.3,0,0.5-0.1c1-0.3,1.6-1.3,1.3-2.2C452.9,197.2,452.6,196,452.3,194.8z" style="fill: rgb(255, 255, 255);"></path>
	<path d="M447.7,180.6c-0.4-1.2-0.8-2.3-1.3-3.5c-0.4-1-1.4-1.4-2.4-1.1c-1,0.4-1.4,1.4-1.1,2.4   c0.6,1.1,1,2.3,1.4,3.4c0.3,0.8,1,1.2,1.7,1.2c0.2,0,0.4,0,0.6-0.1C447.6,182.6,448.1,181.5,447.7,180.6z" style="fill: rgb(255, 255, 255);"></path>
	<path d="M421.1,134.2c0.4,0,0.7-0.1,1-0.3c0.8-0.6,1-1.7,0.5-2.6c-0.7-1-1.4-2-2.1-3c-0.6-0.8-1.7-1-2.6-0.4   c-0.8,0.6-1,1.7-0.4,2.6c0.7,0.9,1.4,1.9,2.1,2.9C420,133.9,420.5,134.2,421.1,134.2z" style="fill: rgb(255, 255, 255);"></path>
	<path d="M432.5,147c-0.6-1.1-1.2-2.1-1.9-3.2c-0.5-0.9-1.6-1.2-2.5-0.6c-0.9,0.5-1.2,1.6-0.6,2.5   c0.6,1,1.2,2,1.8,3.1c0.3,0.6,1,0.9,1.6,0.9c0.3,0,0.6-0.1,0.9-0.2C432.7,149,433,147.9,432.5,147z" style="fill: rgb(255, 255, 255);"></path>
	<path d="M405.5,389.8c0.5,0,1-0.2,1.4-0.6c0.8-0.9,1.6-1.9,2.4-2.8c0.7-0.8,0.6-1.9-0.2-2.6c-0.8-0.7-2-0.6-2.6,0.2   c-0.8,0.9-1.6,1.8-2.4,2.7c-0.7,0.8-0.6,1.9,0.2,2.6C404.7,389.6,405.1,389.8,405.5,389.8z" style="fill: rgb(255, 255, 255);"></path>
	<path d="M449,309.9c0.2,0,0.3,0.1,0.5,0.1c0.8,0,1.5-0.5,1.8-1.3c0.3-1.2,0.7-2.4,1-3.6c0.3-1-0.3-2-1.3-2.3   s-2,0.3-2.3,1.3c-0.3,1.2-0.6,2.3-1,3.5C447.4,308.6,448,309.6,449,309.9z" style="fill: rgb(255, 255, 255);"></path>
	<path d="M263.9,455.5c-1.2,0.1-2.4,0.2-3.6,0.2c-1,0-1.8,0.9-1.7,1.9c0,1,0.9,1.8,1.8,1.8h0.1   c1.2-0.1,2.5-0.1,3.7-0.2c1-0.1,1.8-0.9,1.7-2C265.8,456.1,265,455.4,263.9,455.5z" style="fill: rgb(255, 255, 255);"></path>
	<path d="M445.6,320.4c-0.9-0.4-2,0.1-2.4,1.1c-0.4,1.1-0.9,2.3-1.3,3.4c-0.4,0.9,0.1,2,1,2.4   c0.2,0.1,0.4,0.1,0.7,0.1c0.7,0,1.4-0.4,1.7-1.2c0.5-1.2,0.9-2.3,1.3-3.5C447,321.8,446.5,320.7,445.6,320.4z" style="fill: rgb(255, 255, 255);"></path>
	<path d="M426.3,360c0.3,0.2,0.6,0.3,1,0.3c0.6,0,1.2-0.3,1.6-0.9c0.6-1.1,1.3-2.1,1.9-3.2c0.5-0.9,0.2-2-0.7-2.5   c-0.9-0.5-2-0.2-2.5,0.7c-0.6,1-1.2,2.1-1.9,3.1C425.2,358.4,425.4,359.5,426.3,360z" style="fill: rgb(255, 255, 255);"></path>
	<path d="M64.2,342.5c-0.9,0.5-1.3,1.6-0.8,2.5c0.6,1.1,1.1,2.2,1.7,3.3c0.3,0.6,1,1,1.6,1c0.3,0,0.6-0.1,0.9-0.2   c0.9-0.5,1.2-1.6,0.8-2.5c-0.6-1.1-1.2-2.2-1.7-3.3C66.2,342.4,65.1,342,64.2,342.5z" style="fill: rgb(255, 255, 255);"></path>
	<path d="M380.5,409.4c-0.9,0.8-1.9,1.5-2.8,2.3c-0.8,0.6-0.9,1.8-0.3,2.6c0.4,0.5,0.9,0.7,1.4,0.7   c0.4,0,0.8-0.1,1.1-0.4c1-0.8,1.9-1.5,2.9-2.3c0.8-0.6,0.9-1.8,0.3-2.6C382.4,408.9,381.3,408.8,380.5,409.4z" style="fill: rgb(255, 255, 255);"></path>
	<path d="M334.2,438c-1.1,0.5-2.2,1-3.3,1.5c-0.9,0.4-1.4,1.5-1,2.4c0.3,0.7,1,1.1,1.7,1.1c0.2,0,0.5,0,0.7-0.1   c1.1-0.5,2.3-1,3.4-1.5c0.9-0.4,1.3-1.5,0.9-2.4C336.2,438,335.1,437.6,334.2,438z" style="fill: rgb(255, 255, 255);"></path>
	<path d="M417.7,369.6c-0.7,1-1.4,2-2.1,2.9c-0.6,0.8-0.4,2,0.4,2.6c0.3,0.2,0.7,0.4,1.1,0.4c0.6,0,1.1-0.3,1.5-0.7   c0.7-1,1.5-2,2.2-3c0.5-0.9,0.3-2-0.5-2.6C419.5,368.6,418.3,368.8,417.7,369.6z" style="fill: rgb(255, 255, 255);"></path>
	<path d="M350.5,429.9c-1.1,0.6-2.1,1.2-3.2,1.7c-0.9,0.5-1.2,1.6-0.8,2.5c0.3,0.6,1,1,1.6,1c0.3,0,0.6-0.1,0.9-0.2   c1.1-0.6,2.2-1.2,3.2-1.8c0.9-0.5,1.2-1.6,0.7-2.5C352.5,429.7,351.3,429.4,350.5,429.9z" style="fill: rgb(255, 255, 255);"></path>
	<path d="M456.3,212.8c-0.2-1-1.1-1.7-2.1-1.5s-1.7,1.2-1.5,2.2c0.2,1.2,0.4,2.4,0.6,3.6c0.1,0.9,0.9,1.5,1.8,1.5   c0.1,0,0.2,0,0.3,0c1-0.2,1.7-1.1,1.5-2.1C456.7,215.3,456.5,214.1,456.3,212.8z" style="fill: rgb(255, 255, 255);"></path>
	<path d="M365.9,420.3c-1,0.7-2,1.4-3,2c-0.8,0.6-1.1,1.7-0.5,2.5c0.4,0.5,0.9,0.8,1.5,0.8c0.3,0,0.7-0.1,1-0.3   c1-0.7,2.1-1.4,3.1-2.1c0.8-0.6,1.1-1.7,0.5-2.6C367.9,419.9,366.8,419.7,365.9,420.3z" style="fill: rgb(255, 255, 255);"></path>
	<path d="M455.1,231.5c0.1,1.2,0.2,2.4,0.3,3.6c0.1,1,0.9,1.7,1.8,1.7h0.1c1-0.1,1.8-1,1.7-2   c-0.1-1.2-0.2-2.5-0.3-3.7c-0.1-1-1-1.8-2-1.7C455.7,229.6,455,230.5,455.1,231.5z" style="fill: rgb(255, 255, 255);"></path>
	<path d="M206,451.2c-1-0.2-2,0.4-2.2,1.4c-0.2,1,0.4,2,1.4,2.2c1.2,0.3,2.4,0.5,3.6,0.8c0.1,0,0.2,0,0.4,0   c0.9,0,1.6-0.6,1.8-1.5c0.2-1-0.4-2-1.4-2.2C208.4,451.7,207.2,451.4,206,451.2z" style="fill: rgb(255, 255, 255);"></path>
	<path d="M139.1,423.4c-0.9-0.5-2-0.3-2.5,0.6c-0.5,0.9-0.3,2,0.6,2.5c1,0.7,2.1,1.3,3.1,2c0.3,0.2,0.6,0.3,1,0.3   c0.6,0,1.2-0.3,1.6-0.9c0.4-0.9,0.1-2-0.7-2.6C141.2,424.7,140.1,424,139.1,423.4z" style="fill: rgb(255, 255, 255);"></path>
	<path d="M107.7,401.2c-0.7,0.7-0.6,1.9,0.1,2.6c0.9,0.8,1.8,1.7,2.7,2.5c0.4,0.3,0.8,0.5,1.2,0.5   c0.5,0,1-0.2,1.4-0.6c0.7-0.8,0.6-1.9-0.1-2.6c-0.9-0.9-1.8-1.7-2.7-2.5C109.6,400.4,108.4,400.5,107.7,401.2z" style="fill: rgb(255, 255, 255);"></path>
	<path d="M124.2,412.9c-0.8-0.6-2-0.5-2.6,0.3c-0.6,0.8-0.5,2,0.3,2.6c1,0.8,2,1.5,3,2.2c0.3,0.2,0.7,0.4,1.1,0.4   c0.6,0,1.1-0.3,1.5-0.7c0.6-0.9,0.4-2-0.4-2.6C126.1,414.4,125.2,413.6,124.2,412.9z" style="fill: rgb(255, 255, 255);"></path>
	<path d="M154.9,432.5c-0.9-0.5-2-0.1-2.5,0.8c-0.5,0.9-0.1,2,0.8,2.5c1.1,0.6,2.2,1.1,3.3,1.7   c0.3,0.1,0.5,0.2,0.8,0.2c0.7,0,1.3-0.4,1.6-1c0.4-0.9,0.1-2-0.8-2.5C157,433.7,155.9,433.1,154.9,432.5z" style="fill: rgb(255, 255, 255);"></path>
	<path d="M453.6,292.2c0.1,0,0.2,0,0.4,0c0.9,0,1.6-0.6,1.8-1.5c0.2-1.2,0.5-2.4,0.7-3.6c0-1.1-0.6-2-1.6-2.2   s-2,0.5-2.1,1.5c-0.2,1.2-0.4,2.4-0.7,3.6C451.9,291,452.6,292,453.6,292.2z" style="fill: rgb(255, 255, 255);"></path>
	<path d="M73.1,358.5c-0.9,0.5-1.1,1.7-0.6,2.5c0.7,1,1.3,2.1,2,3.1c0.4,0.5,0.9,0.8,1.5,0.8c0.3,0,0.7-0.1,1-0.3   c0.9-0.6,1.1-1.7,0.5-2.5c-0.6-0.9-1.2-1.9-1.9-3C75.1,358.2,73.9,358,73.1,358.5z" style="fill: rgb(255, 255, 255);"></path>
	<path d="M355.1,68.9c-1.1-0.6-2.1-1.2-3.2-1.8c-0.9-0.5-2-0.2-2.5,0.7c-0.5,0.9-0.2,2,0.7,2.5   c1.1,0.6,2.1,1.2,3.2,1.8c0.3,0.2,0.6,0.2,0.9,0.2c0.6,0,1.3-0.3,1.6-0.9C356.3,70.5,356,69.4,355.1,68.9z" style="fill: rgb(255, 255, 255);"></path>
	<path d="M83.3,373.7c-0.8,0.6-1,1.8-0.4,2.6c0.7,1,1.5,2,2.3,2.9c0.4,0.5,0.9,0.7,1.4,0.7c0.4,0,0.8-0.1,1.1-0.4   c0.8-0.6,0.9-1.8,0.3-2.6c-0.6-0.8-1.3-1.8-2.1-2.8C85.3,373.3,84.1,373.1,83.3,373.7z" style="fill: rgb(255, 255, 255);"></path>
	<path d="M94.9,388c-0.8,0.7-0.8,1.8-0.1,2.6c0.8,0.9,1.7,1.8,2.5,2.7c0.4,0.4,0.9,0.6,1.3,0.6   c0.5,0,0.9-0.2,1.3-0.5c0.8-0.7,0.8-1.8,0.1-2.6c-0.8-0.9-1.7-1.8-2.5-2.7C96.8,387.3,95.7,387.3,94.9,388z" style="fill: rgb(255, 255, 255);"></path>
	<path d="M171.3,440.2c-0.9-0.4-2,0.1-2.4,1c-0.4,0.9,0.1,2,1,2.4c1.1,0.5,2.3,0.9,3.4,1.4c0.2,0.1,0.4,0.1,0.7,0.1   c0.7,0,1.4-0.4,1.7-1.2c0.4-0.8,0-1.9-1-2.3C173.6,441.2,172.4,440.7,171.3,440.2z" style="fill: rgb(255, 255, 255);"></path>
	<path d="M408.6,118.9c0.4,0.4,0.9,0.7,1.4,0.7c0.4,0,0.8-0.1,1.2-0.4c0.8-0.6,0.9-1.8,0.2-2.6   c-0.8-1-1.6-1.9-2.4-2.8c-0.7-0.8-1.8-0.9-2.6-0.2c-0.8,0.7-0.9,1.8-0.2,2.6C407.1,117,407.8,117.9,408.6,118.9z" style="fill: rgb(255, 255, 255);"></path>
	<path d="M394,397.3c-0.9,0.8-1.7,1.7-2.6,2.5c-0.7,0.7-0.8,1.8-0.1,2.6c0.4,0.4,0.8,0.6,1.3,0.6s0.9-0.2,1.3-0.5   c0.9-0.8,1.8-1.7,2.7-2.6c0.7-0.7,0.7-1.9,0-2.6S394.7,396.6,394,397.3z" style="fill: rgb(255, 255, 255);"></path>
	<path d="M458.4,272.4c0.1-1.2,0.2-2.5,0.4-3.7c0.1-1.1-0.7-1.9-1.7-2c-1-0.1-1.9,0.7-2,1.7   c-0.1,1.2-0.2,2.4-0.3,3.6c-0.1,1,0.6,1.9,1.6,2c0.1,0,0.1,0,0.2,0C457.5,274,458.3,273.3,458.4,272.4z" style="fill: rgb(255, 255, 255);"></path>
	<path d="M384.2,93.4c0.5,0,1-0.2,1.4-0.7c0.7-0.8,0.6-1.9-0.2-2.6c-0.9-0.8-1.9-1.6-2.9-2.4   c-0.8-0.6-1.9-0.5-2.6,0.3s-0.5,1.9,0.3,2.6c1,0.9,1.9,1.7,2.8,2.4C383.3,93.3,383.8,93.4,384.2,93.4z" style="fill: rgb(255, 255, 255);"></path>
	<path d="M438.6,337.4c-0.9-0.4-2,0-2.4,0.9c-0.5,1.1-1.1,2.2-1.6,3.3c-0.5,0.9-0.1,2,0.8,2.5   c0.3,0.1,0.5,0.2,0.8,0.2c0.7,0,1.3-0.4,1.6-1c0.6-1.1,1.1-2.2,1.6-3.3C439.9,338.9,439.5,337.8,438.6,337.4z" style="fill: rgb(255, 255, 255);"></path>
	<path d="M368.6,81.9c0.3,0.2,0.7,0.3,1.1,0.3c0.6,0,1.1-0.3,1.5-0.8c0.6-0.8,0.4-2-0.4-2.6c-1-0.7-2-1.4-3.1-2.1   c-0.8-0.6-2-0.4-2.6,0.5c-0.5,0.9-0.3,2.1,0.5,2.6C366.6,80.5,367.6,81.2,368.6,81.9z" style="fill: rgb(255, 255, 255);"></path>
	<path d="M188.4,446.5c-1-0.3-2,0.2-2.3,1.2c-0.3,1,0.2,2,1.2,2.3c1.2,0.4,2.4,0.7,3.5,1.1c0.2,0.1,0.3,0.1,0.5,0.1   c0.8,0,1.5-0.5,1.8-1.3c0.4-1-0.2-2.1-1.2-2.3C190.7,447.3,189.6,446.9,188.4,446.5z" style="fill: rgb(255, 255, 255);"></path>
	<path d="M224,454.3c-1-0.1-1.9,0.6-2.1,1.6c-0.1,1,0.6,1.9,1.6,2.1c1.2,0.2,2.5,0.3,3.7,0.4c0.1,0,0.1,0,0.2,0   c0.9,0,1.7-0.7,1.8-1.6c0.1-1.1-0.6-2-1.6-2.1C226.4,454.6,225.2,454.4,224,454.3z" style="fill: rgb(255, 255, 255);"></path>
	<path d="M242.1,455.8c-1,0-1.9,0.8-1.9,1.8s0.8,1.9,1.8,1.9c1.2,0,2.5,0.1,3.7,0.1c1,0,1.8-0.8,1.8-1.8   c0.1-1.1-0.7-1.9-1.8-1.9C244.5,455.9,243.3,455.8,242.1,455.8z" style="fill: rgb(255, 255, 255);"></path>
	<path d="M384,383.8c-34.3,34.4-81.6,55.6-133.8,55.6v0.1c-52.2-0.1-99.5-21.3-133.7-55.6l0,0   c-34.4-34.2-55.6-81.6-55.6-133.8c0-52.2,21.2-99.5,55.5-133.7l0,0C150.7,82,198,60.8,250.2,60.8v-7.7   c-54.3,0-103.6,22.1-139.2,57.8l-0.1-0.1c-35.6,35.8-57.7,85-57.7,139.3c0,54.3,22.1,103.6,57.8,139.2l-0.1,0.1   c35.7,35.7,84.9,57.8,139.3,57.8v-0.1c54.3,0,103.6-22.1,139.3-57.8L384,383.8z" style="fill: rgb(255, 255, 255);"></path>
	<path d="M352.1,107.5c-1.3,1.7-1,4.2,0.8,5.5c6.5,4.9,18.4,16.1,18.4,16.1c5,5.1,9.8,10.4,14.1,16   c0.8,1,2,1.5,3.1,1.5c0.8,0,1.7-0.3,2.4-0.8c1.7-1.3,2-3.8,0.7-5.5c-4.6-5.9-14.9-16.7-14.9-16.7c-6-6.1-12.4-11.7-19.1-16.9   C355.9,105.4,353.4,105.7,352.1,107.5z" style="fill: rgb(255, 255, 255);"></path>
	<path d="M374.1,378.5c0.7-0.7,1.5-1.5,2.2-2.2l-5.5-5.5c-0.7,0.7-1.4,1.4-2.1,2.1c-1.5,1.5-1.6,3.9-0.1,5.5   c0.8,0.8,1.8,1.2,2.8,1.2S373.4,379.2,374.1,378.5z" style="fill: rgb(255, 255, 255);"></path>
	<path d="M402.5,335.6c-1.9-1.1-4.3-0.5-5.4,1.4c-7.3,12.3-16.2,23.6-26.3,33.7l5.5,5.5   c10.7-10.5,19.9-22.3,27.6-35.2C405,339.1,404.4,336.7,402.5,335.6z" style="fill: rgb(255, 255, 255);"></path>
	<path d="M423.7,232.3c0.2,0,0.3,0,0.5,0c2.1-0.3,3.7-2.2,3.4-4.4c-1.9-15.9-6-31.5-12.1-46.3c-0.8-2-3.1-3-5.1-2.1   c-2,0.8-3,3.1-2.1,5.1c5.8,14.2,9.7,29.1,11.5,44.3C420,230.9,421.7,232.3,423.7,232.3z" style="fill: rgb(255, 255, 255);"></path>
	<path d="M243.5,428.6h0.1c2.1,0,3.8-1.7,3.9-3.8c0.1-2.2-1.6-4-3.8-4.1c-15.3-0.6-30.5-3.1-45-7.7   c-2.1-0.6-4.3,0.5-4.9,2.6c-0.6,2.1,0.5,4.3,2.6,4.9C211.6,425.3,227.5,428,243.5,428.6z" style="fill: rgb(255, 255, 255);"></path>
	<path d="M286.3,420.9c0.4,1.8,2,3,3.8,3c0.3,0,0.6,0,0.9-0.1c15.6-3.7,30.6-9.4,44.6-17.1c1.9-1,2.6-3.4,1.6-5.3   c-1-1.8-3.4-2.5-5.3-1.5c-13.4,7.3-27.8,12.8-42.7,16.3C287.1,416.7,285.8,418.8,286.3,420.9z" style="fill: rgb(255, 255, 255);"></path>
	<path d="M123.8,376.6L123.8,376.6c8.9,8.8,18.7,16.7,29.3,23.5c0.7,0.4,1.4,0.6,2.1,0.6c1.3,0,2.5-0.6,3.3-1.8   c1.2-1.8,0.6-4.2-1.2-5.4c-10.1-6.5-19.4-14.1-28-22.5l0,0c-2.3-2.4-4.6-4.8-6.8-7.1c-1.4-1.6-3.9-1.7-5.5-0.3s-1.7,3.9-0.3,5.5   C119,371.7,121.4,374.1,123.8,376.6z" style="fill: rgb(255, 255, 255);"></path>
	<path d="M265.2,75.3c-0.2,2.1,1.3,4,3.5,4.3c15.2,1.7,30.2,5.4,44.4,11c0.5,0.2,1,0.3,1.4,0.3c1.6,0,3-0.9,3.6-2.5   c0.8-2-0.2-4.3-2.2-5.1c-14.9-5.9-30.5-9.8-46.4-11.5C267.4,71.6,265.4,73.1,265.2,75.3z" style="fill: rgb(255, 255, 255);"></path>
	<path d="M411.6,250.2c0-44.6-18.1-84.9-47.2-114.1l0,0c0,0,0,0,0,0s0,0,0,0l0,0c-29.2-29.2-69.6-47.3-114.1-47.3   c-44.5,0-84.8,18.1-114,47.3c-29.2,29.2-47.3,69.5-47.3,114c0,44.5,18.1,84.7,47.2,113.9l0,0c0,0,0,0,0,0s0,0,0,0l0,0   c29.2,29.2,69.5,47.4,114,47.4v-8.2c-42.2,0-80.5-17.3-108.2-45c-27.8-27.7-44.9-65.9-44.9-108.2c0-42.2,17.2-80.5,44.9-108.2   C169.7,114.2,208,97,250.2,97s80.6,17.2,108.3,44.9c27.7,27.7,44.9,66,44.9,108.4h0c0,42.2-17.2,80.3-44.9,108.1l5.8,5.8   C393.5,335,411.6,294.7,411.6,250.2L411.6,250.2z" style="fill: rgb(255, 255, 255);"></path>
	<path d="M372.1,186.1c0.7,0,1.4-0.2,2.1-0.5c2-1.1,2.8-3.7,1.6-5.8c-5.7-10.2-12.7-19.6-20.7-28.1   c-1.6-1.7-4.3-1.8-6-0.2c-1.7,1.6-1.8,4.2-0.2,5.9c7.5,8,14.1,16.9,19.5,26.5C369.2,185.3,370.6,186.1,372.1,186.1z" style="fill: rgb(255, 255, 255);"></path>
	<path d="M389.6,244.6c0.1,0,0.2,0,0.3,0c2.3-0.2,4.1-2.2,3.9-4.5c-0.8-11.6-3.1-23.1-6.7-34.3   c-0.7-2.2-3.1-3.5-5.4-2.7c-2.2,0.7-3.5,3.1-2.7,5.4c3.5,10.5,5.7,21.3,6.4,32.2C385.6,242.9,387.4,244.6,389.6,244.6z" style="fill: rgb(255, 255, 255);"></path>
	<path d="M144.7,158.9c-1.8-1.5-4.5-1.2-6,0.6c-7.3,9.1-13.6,19-18.5,29.6c-1.1,2.2-0.1,4.7,2,5.7   c0.6,0.3,1.2,0.4,1.8,0.4c1.6,0,3.1-0.9,3.8-2.4c4.7-10,10.5-19.3,17.5-27.9C146.8,163.1,146.5,160.4,144.7,158.9z" style="fill: rgb(255, 255, 255);"></path>
	<path d="M113.6,294.8c3.3,10.1,7.7,19.9,13,28.9c0.8,1.3,2.2,2.1,3.7,2.1c0.7,0,1.5-0.2,2.2-0.6   c2-1.2,2.7-3.8,1.5-5.8c-5.1-8.6-9.3-17.8-12.4-27.3c-0.3-1-0.6-1.9-0.9-2.9c-0.7-2.2-3-3.5-5.3-2.8c-2.2,0.7-3.5,3-2.8,5.3   C112.9,292.7,113.2,293.7,113.6,294.8z" style="fill: rgb(255, 255, 255);"></path>
	<path d="M266.4,111.5c0.2-2.3-1.5-4.4-3.9-4.6c-4.1-0.3-8.2-0.5-12.3-0.5c-7.6,0-15.1,0.6-22.6,1.8   c-2.3,0.4-3.9,2.6-3.5,4.9c0.3,2.1,2.1,3.6,4.2,3.6c0.2,0,0.5,0,0.7-0.1c7-1.1,14.1-1.7,21.2-1.7c3.9,0,7.8,0.1,11.6,0.5   C264.2,115.6,266.2,113.8,266.4,111.5z" style="fill: rgb(255, 255, 255);"></path>
	<path d="M323.6,136.4c0.7,0.5,1.5,0.7,2.3,0.7c1.4,0,2.8-0.7,3.6-2c1.3-2,0.7-4.6-1.3-5.9   c-9.8-6.3-20.4-11.4-31.4-15.2c-2.2-0.8-4.6,0.4-5.4,2.6c-0.8,2.3,0.4,4.8,2.6,5.5C304.4,125.6,314.4,130.5,323.6,136.4z" style="fill: rgb(255, 255, 255);"></path>
	<path d="M194.1,117.9c-10.8,4.6-21,10.4-30.3,17.4c-1.9,1.4-2.2,4.1-0.8,5.9c0.8,1.1,2.1,1.7,3.4,1.7   c0.9,0,1.8-0.3,2.6-0.9c8.8-6.6,18.3-12.1,28.5-16.4c2.2-0.9,3.2-3.4,2.3-5.6C198.9,117.8,196.2,117,194.1,117.9z" style="fill: rgb(255, 255, 255);"></path>
	<path d="M117.6,224c0.4-2.3-1.1-4.5-3.4-5s-4.5,1-5,3.3c-1.8,9.1-2.7,18.4-2.7,27.7h-0.1c0.1,0.2,0.1,0.2,0.1,0.2   c0,2.3,0.1,4.7,0.2,7c0.1,2.3,2,4,4.2,4c0.1,0,0.1,0,0.2,0c2.3-0.1,4.1-2.1,4-4.5c-0.1-2.2-0.2-4.4-0.2-6.6h0.1   C115,241.4,115.9,232.6,117.6,224z" style="fill: rgb(255, 255, 255);"></path>
</g>
</svg>